<?xml version="1.0" encoding="utf-8"?>
<!-- Generator: Adobe Illustrator 23.0.2, SVG Export Plug-In . SVG Version: 6.00 Build 0)  -->
<svg version="1.1" id="Layer_1" xmlns="http://www.w3.org/2000/svg" xmlns:xlink="http://www.w3.org/1999/xlink" x="0px" y="0px"
	 viewBox="0 0 86.97 20.84" style="enable-background:new 0 0 86.97 20.84;" xml:space="preserve">
<style type="text/css">
	.st0{fill:#FFFFFF;}
	.st1{fill:#D7D8D9;}
</style>
<g>
	<path class="st0" d="M24.02,17.9V3.58h5.18c1.13,0,2.11,0.37,2.92,1.12c0.81,0.73,1.22,1.66,1.22,2.78c0,1.41-0.65,2.41-1.94,2.98
		v0.08c0.73,0.24,1.32,0.66,1.76,1.25c0.44,0.59,0.66,1.27,0.66,2.03c0,1.17-0.43,2.15-1.28,2.92c-0.83,0.77-1.85,1.16-3.06,1.16
		H24.02z M25.86,5.34v4.38h3.34c0.65,0,1.2-0.22,1.64-0.66c0.44-0.45,0.66-0.97,0.66-1.54c0-0.56-0.21-1.07-0.64-1.52
		c-0.43-0.44-0.95-0.66-1.58-0.66H25.86z M25.86,11.44v4.7h3.7c0.67,0,1.23-0.23,1.7-0.7c0.45-0.47,0.68-1.02,0.68-1.66
		c0-0.63-0.23-1.17-0.7-1.64c-0.47-0.47-1.05-0.7-1.76-0.7H25.86z"/>
	<path class="st0" d="M37.96,4.72c0,0.36-0.13,0.67-0.38,0.92c-0.25,0.25-0.56,0.38-0.92,0.38c-0.36,0-0.67-0.13-0.92-0.38
		s-0.38-0.56-0.38-0.92c0-0.36,0.13-0.67,0.38-0.92C36,3.55,36.3,3.42,36.66,3.42c0.36,0,0.67,0.13,0.92,0.38
		C37.84,4.05,37.96,4.36,37.96,4.72z M37.58,8.1v9.8h-1.84V8.1H37.58z"/>
	<path class="st0" d="M43.76,18.06c-0.8,0-1.46-0.25-1.99-0.74s-0.8-1.18-0.81-2.06V9.78h-1.72V8.1h1.72v-3h1.84v3h2.4v1.68h-2.4
		v4.88c0,0.65,0.13,1.1,0.38,1.33c0.25,0.23,0.54,0.35,0.86,0.35c0.15,0,0.29-0.02,0.43-0.05c0.14-0.03,0.27-0.08,0.39-0.13
		l0.58,1.64C44.96,17.97,44.4,18.06,43.76,18.06z"/>
	<path class="st0" d="M54.02,18.22c-2.12,0-3.89-0.71-5.32-2.14c-1.41-1.43-2.12-3.21-2.12-5.34c0-2.13,0.71-3.91,2.12-5.32
		c1.41-1.44,3.19-2.16,5.32-2.16c2.16,0,3.91,0.78,5.26,2.34l-1.32,1.28c-1.03-1.24-2.34-1.86-3.94-1.86c-1.59,0-2.91,0.53-3.98,1.6
		c-1.05,1.05-1.58,2.43-1.58,4.12c0,1.69,0.53,3.07,1.58,4.12c1.07,1.07,2.39,1.6,3.98,1.6c1.67,0,3.11-0.7,4.34-2.1l1.34,1.3
		c-0.68,0.81-1.51,1.44-2.5,1.89C56.22,18,55.16,18.22,54.02,18.22z"/>
	<path class="st0" d="M64.86,7.78c1.36,0,2.43,0.36,3.22,1.09c0.79,0.73,1.18,1.72,1.18,2.99v6.04H67.5v-1.36h-0.08
		c-0.76,1.12-1.77,1.68-3.04,1.68c-1.08,0-1.98-0.32-2.71-0.96c-0.73-0.64-1.09-1.44-1.09-2.4c0-1.01,0.38-1.82,1.15-2.42
		s1.79-0.9,3.07-0.9c1.09,0,1.99,0.2,2.7,0.6v-0.42c0-0.64-0.25-1.18-0.76-1.63c-0.51-0.45-1.1-0.67-1.78-0.67
		c-1.03,0-1.84,0.43-2.44,1.3L60.9,9.7C61.8,8.42,63.12,7.78,64.86,7.78z M62.48,14.9c0,0.48,0.2,0.88,0.61,1.2
		c0.41,0.32,0.88,0.48,1.43,0.48c0.77,0,1.46-0.29,2.07-0.86c0.61-0.57,0.91-1.25,0.91-2.02c-0.57-0.45-1.37-0.68-2.4-0.68
		c-0.75,0-1.37,0.18-1.87,0.54C62.73,13.92,62.48,14.37,62.48,14.9z"/>
	<path class="st0" d="M78.74,15.18c0,0.85-0.37,1.57-1.12,2.16c-0.75,0.59-1.69,0.88-2.82,0.88c-0.99,0-1.85-0.26-2.6-0.77
		c-0.75-0.51-1.28-1.19-1.6-2.03l1.64-0.7c0.24,0.59,0.59,1.04,1.05,1.37c0.46,0.33,0.96,0.49,1.51,0.49c0.59,0,1.08-0.13,1.47-0.38
		c0.39-0.25,0.59-0.55,0.59-0.9c0-0.63-0.48-1.09-1.44-1.38l-1.68-0.42c-1.91-0.48-2.86-1.4-2.86-2.76c0-0.89,0.36-1.61,1.09-2.15
		s1.66-0.81,2.79-0.81c0.87,0,1.65,0.21,2.35,0.62c0.7,0.41,1.19,0.97,1.47,1.66l-1.64,0.68c-0.19-0.41-0.49-0.74-0.91-0.97
		s-0.89-0.35-1.41-0.35c-0.48,0-0.91,0.12-1.29,0.36c-0.38,0.24-0.57,0.53-0.57,0.88c0,0.56,0.53,0.96,1.58,1.2l1.48,0.38
		C77.77,12.72,78.74,13.7,78.74,15.18z"/>
	<path class="st0" d="M84.12,18.06c-0.8,0-1.46-0.25-1.99-0.74s-0.8-1.18-0.81-2.06V9.78H79.6V8.1h1.72v-3h1.84v3h2.4v1.68h-2.4
		v4.88c0,0.65,0.13,1.1,0.38,1.33c0.25,0.23,0.54,0.35,0.86,0.35c0.15,0,0.29-0.02,0.43-0.05c0.14-0.03,0.27-0.08,0.39-0.13
		l0.58,1.64C85.32,17.97,84.76,18.06,84.12,18.06z"/>
</g>
<circle class="st1" cx="10.86" cy="10.41" r="9.94"/>
<g>
	<path class="st0" d="M10.95,16.48c-0.13,0-0.27-0.02-0.39-0.07c-0.04-0.06-0.09-0.11-0.13-0.17c-0.06-0.13-0.08-0.27-0.07-0.41
		c0.01-0.33,0-0.65,0-0.98c0-0.05,0.02-0.11-0.03-0.15c-0.24-0.05-0.48-0.1-0.73-0.15c-0.64-0.17-1.22-0.48-1.73-0.9
		c-0.01-0.01-0.03-0.01-0.04-0.02c-0.17-0.17-0.34-0.34-0.51-0.5c-0.18-0.25-0.36-0.49-0.54-0.74c-0.12-0.22-0.2-0.47-0.36-0.67
		c-0.13-0.36-0.22-0.72-0.29-1.09C6.01,10.31,5.99,9.99,6.1,9.68c0.09-0.26,0.31-0.33,0.55-0.33c0.23,0,0.42,0.11,0.51,0.34
		C7.17,9.73,7.19,9.77,7.2,9.82c0.02,0.33,0.04,0.66,0.12,0.98c0.08,0.35,0.21,0.67,0.39,0.98c0.15,0.27,0.34,0.51,0.56,0.74
		c0.27,0.28,0.58,0.5,0.93,0.66c0.53,0.29,1.09,0.41,1.69,0.43c0.07,0,0.14,0.01,0.21,0.04c0.25,0.13,0.36,0.33,0.35,0.61
		c0,0.09-0.01,0.18,0.01,0.32c0.31-0.32,0.61-0.59,0.87-0.89c0.18-0.2,0.38-0.38,0.57-0.58c0.21-0.21,0.42-0.42,0.63-0.63
		c0.14-0.16,0.28-0.33,0.43-0.49c0.05-0.05,0.07-0.11,0.09-0.17c0.2-0.3,0.33-0.62,0.41-0.96c0.08-0.31,0.13-0.62,0.13-0.93
		c0.01-0.24,0.1-0.43,0.35-0.51c0.29-0.12,0.56,0.01,0.72,0.32c0.06,0.3,0.01,0.59-0.02,0.88c-0.01,0.06-0.01,0.13-0.02,0.19
		c-0.09,0.33-0.18,0.66-0.3,0.98c-0.11,0.21-0.22,0.42-0.32,0.63c-0.14,0.2-0.28,0.39-0.43,0.59c-0.15,0.16-0.31,0.33-0.46,0.49
		c-0.36,0.31-0.7,0.64-1.02,0.99c-0.2,0.19-0.39,0.37-0.56,0.58c-0.2,0.2-0.39,0.4-0.59,0.6c-0.12,0.12-0.24,0.24-0.36,0.36
		c-0.07,0.06-0.13,0.11-0.2,0.17c-0.03,0.06-0.06,0.11-0.11,0.15c-0.05,0.03-0.09,0.08-0.15,0.07C11.05,16.45,11,16.46,10.95,16.48z
		"/>
	<path class="st0" d="M13.14,6.16c0.07,0.32,0.08,0.65,0.08,0.98c0,0.31,0,0.61,0,0.92c0,0.19,0,0.37,0,0.56c0,0.16,0,0.33,0,0.49
		c0,0.11,0,0.22,0,0.33c0.07,0.11,0.04,0.22,0.03,0.34c-0.05,0.37-0.15,0.71-0.33,1.04c-0.26,0.41-0.58,0.76-1.03,0.98
		c-0.64,0.3-1.28,0.31-1.93,0c-0.35-0.17-0.62-0.43-0.85-0.73c-0.06-0.08-0.1-0.17-0.18-0.23c-0.19-0.26-0.27-0.57-0.33-0.87
		C8.59,9.9,8.59,9.83,8.58,9.77C8.55,9.55,8.57,9.33,8.57,9.11c0-0.17,0-0.35,0-0.52c0-0.2-0.01-0.39,0-0.59
		c0-0.29-0.01-0.58,0-0.87c0-0.29-0.02-0.58,0.06-0.87c0.15-0.71,0.57-1.22,1.15-1.63C9.85,4.58,9.91,4.54,10,4.55
		c0.59-0.26,1.19-0.26,1.8-0.03C12.49,4.86,12.93,5.42,13.14,6.16z"/>
</g>
</svg>
