<svg xmlns="http://www.w3.org/2000/svg" width="104" height="30" viewBox="0 0 104 30">
    <g fill="none" fill-rule="evenodd">
        <path fill="#1A1F24" d="M0 29.384V8.228h3.344v21.156H0zm20.82 0h-3.384V13.456c0-.243-.033-.507-.1-.79a1.793 1.793 0 0 0-.458-.811c-.238-.257-.577-.473-1.015-.648-.438-.176-1.015-.264-1.731-.264-.743 0-1.347.088-1.812.264-.464.175-.822.385-1.074.628a1.763 1.763 0 0 0-.498.79c-.08.284-.12.534-.12.75v16.009H7.246V12.807c0-.324.053-.756.16-1.296.105-.54.39-1.081.855-1.622.465-.54 1.148-1.006 2.05-1.398.903-.392 2.15-.588 3.742-.588s2.84.196 3.742.588c.902.392 1.58.858 2.03 1.398.451.54.73 1.088.836 1.642.106.554.16.98.16 1.276V29.384zm13.255-3.04v3.04c-1.592 0-2.84-.196-3.742-.587-.902-.392-1.585-.858-2.05-1.399-.464-.54-.75-1.087-.855-1.641-.107-.554-.16-.98-.16-1.277V10.781h-2.547V7.903h2.547v-5.39h3.384v5.39h3.423v2.878h-3.423v13.01c0 .243.033.507.1.79.066.284.218.561.457.831.24.27.577.493 1.015.669.438.176 1.015.263 1.732.263h.12zm9.594-18.44c1.592 0 2.84.195 3.742.587.902.392 1.579.858 2.03 1.398.451.54.73 1.088.836 1.642.106.554.16.98.16 1.276V14.753c0 .46-.087.973-.26 1.54-.172.567-.577 1.175-1.214 1.824a2.887 2.887 0 0 1-.995.73 7.657 7.657 0 0 1-.995.364 3.574 3.574 0 0 1-1.075.162h-3.025c-.69 0-1.3.257-1.831.77-.531.514-.796 1.149-.796 1.905v1.824c0 .649.119 1.162.358 1.54.106.19.225.352.358.487.133.135.332.256.597.364.213.108.485.203.816.284.332.081.763.122 1.294.122.69 0 1.234-.075 1.632-.223.398-.149.677-.277.836-.385.345-.27.584-.595.717-.973.132-.378.199-.784.199-1.216h3.383v.973c0 .73-.152 1.405-.457 2.026-.306.622-.777 1.162-1.414 1.622-.45.324-1.074.608-1.87.85-.797.244-1.805.365-3.026.365-.902 0-1.685-.074-2.349-.222a8.463 8.463 0 0 1-1.731-.568 4.656 4.656 0 0 1-1.214-.79 6.018 6.018 0 0 1-.797-.892c-.477-.702-.703-1.513-.676-2.432V12.807c0-.324.053-.756.159-1.296.106-.54.385-1.081.836-1.622.451-.54 1.128-1.006 2.03-1.398.902-.392 2.15-.588 3.742-.588zm3.384 5.917v-.365c0-.243-.033-.507-.1-.79a1.793 1.793 0 0 0-.458-.811c-.238-.257-.577-.473-1.015-.648-.438-.176-1.015-.264-1.731-.264-.743 0-1.347.088-1.812.264-.464.175-.822.385-1.074.628a1.763 1.763 0 0 0-.498.79c-.08.284-.12.534-.12.75v4.215c.054-.243.173-.44.359-.588a2.08 2.08 0 0 1 .637-.344c.239-.081.477-.135.716-.162.24-.027.425-.04.558-.04h2.269c.61 0 1.14-.224 1.592-.67.451-.445.677-.98.677-1.6v-.365zm7.603 15.563V0H58v29.384h-3.344zm7.723 0V8.228h3.344v21.156h-3.344zM76.39 7.904c2.335 0 4.047.465 5.135 1.398 1.088.932 1.632 2.1 1.632 3.505v11.997c0 .487-.086 1.02-.258 1.601-.173.581-.511 1.115-1.016 1.601-.504.487-1.194.892-2.07 1.216-.875.324-2.016.486-3.423.486s-2.548-.162-3.423-.486c-.876-.324-1.566-.73-2.07-1.216-.505-.486-.843-1.02-1.016-1.6-.172-.582-.258-1.115-.258-1.602V22.9c0-1.026.258-1.959.776-2.796.517-.838 1.254-1.432 2.21-1.783.477-.163 1.021-.352 1.631-.568l1.772-.628c.57-.203 1.068-.385 1.493-.547a10.6 10.6 0 0 1 .796-.284c.106-.054.245-.128.418-.223.172-.094.338-.236.497-.425.16-.19.299-.406.418-.649.12-.243.18-.527.18-.851v-.77c0-.27-.054-.547-.16-.831a2.056 2.056 0 0 0-.557-.79c-.265-.243-.617-.44-1.055-.588-.438-.149-.989-.223-1.652-.223-1.327 0-2.223.277-2.687.831-.464.554-.697 1.223-.697 2.006h-3.383v-.973c0-.675.126-1.31.378-1.904.252-.595.657-1.115 1.214-1.56.557-.447 1.26-.798 2.11-1.055.849-.256 1.87-.385 3.065-.385zm3.423 10.74a.888.888 0 0 1-.398.608c-.212.135-.411.23-.597.283-.398.136-.829.29-1.293.467-.465.175-.896.33-1.294.466a38.39 38.39 0 0 0-1.354.486 3.672 3.672 0 0 0-.915.567 3.518 3.518 0 0 0-.657.831c-.2.338-.299.764-.299 1.277 0 1.027.24 1.79.717 2.29.478.5 1.367.75 2.667.75 1.327 0 2.23-.264 2.707-.79.478-.528.716-1.277.716-2.25v-4.985z"/>
        <path stroke="#0FBDCE" stroke-width="2" d="M90.566 9.248c-1.394 1.499-1.394 3.956 0 5.454l6.033 6.483c1.357 1.458 3.523 1.458 4.88 0 1.394-1.498 1.394-3.955 0-5.454l-6.034-6.483c-1.356-1.457-3.523-1.457-4.879 0z"/>
        <path stroke="#0FBDCE" stroke-width="2" d="M90.566 27.618c1.356 1.457 3.523 1.457 4.88 0l6.033-6.483c1.394-1.499 1.394-3.956 0-5.454-1.357-1.458-3.523-1.458-4.88 0l-6.033 6.483c-1.394 1.498-1.394 3.955 0 5.454z"/>
    </g>
</svg>
