<svg xmlns="http://www.w3.org/2000/svg" width="85" height="20" viewBox="0 0 85 20">
    <g fill="#FFF" fill-rule="evenodd">
        <path d="M28.089 15.333V4.294h3.46c2.25 0 3.899 1.18 3.899 3.266 0 2.062-1.649 3.195-3.899 3.195h-1.492v4.578H28.09zm1.968-6.43h1.492c1.36 0 1.93-.468 1.93-1.343 0-.899-.586-1.414-1.93-1.414h-1.492v2.758zm8.37 6.587c-1.601 0-2.836-.922-2.836-2.555 0-1.695 1.36-2.258 3.11-2.258h2.03c0-.992-.53-1.648-1.538-1.648-.899 0-1.5.53-1.836 1.101l-1.461-1.054c.75-1.024 1.742-1.711 3.281-1.711 2.125 0 3.375 1.328 3.375 3.234v4.734h-1.57l-.125-1.117c-.672.977-1.5 1.274-2.43 1.274zm.274-1.61c1.085 0 2-.851 2.03-1.828H38.81c-.867 0-1.266.453-1.266.945 0 .516.414.883 1.157.883zm5.549 1.453V7.53h1.89v.906c.626-.766 1.54-1.07 2.305-1.07 2.047 0 2.828 1.648 2.828 3.28v4.688h-1.882v-4.445c0-1.023-.516-1.766-1.493-1.766-1.07 0-1.757.579-1.757 1.938v4.273H44.25zm11.51.157c-1.539 0-2.453-.891-2.453-2.313V9.122H52.05V7.53h1.29V5.59l1.859-1.36V7.53h1.969v1.593h-1.97v3.72c0 .75.384.968.884.968.398 0 .828-.156 1.086-.281v1.726a4.51 4.51 0 0 1-1.407.235zm2.722-.157V7.53h1.86V8.84a2.222 2.222 0 0 1 2.093-1.476c.516 0 1.055.18 1.43.562l-.868 1.563a1.523 1.523 0 0 0-.851-.266c-.89 0-1.82.828-1.82 2.812v3.297h-1.844zm8.26.157c-1.601 0-2.836-.922-2.836-2.555 0-1.695 1.36-2.258 3.11-2.258h2.03c0-.992-.53-1.648-1.538-1.648-.899 0-1.5.53-1.836 1.101L64.21 9.076c.75-1.024 1.742-1.711 3.281-1.711 2.125 0 3.375 1.328 3.375 3.234v4.734h-1.57l-.125-1.117c-.672.977-1.5 1.274-2.43 1.274zm.274-1.61c1.086 0 2-.851 2.03-1.828h-1.921c-.867 0-1.266.453-1.266.945 0 .516.414.883 1.157.883zm5.55 1.453V7.53h1.921v.812c.516-.703 1.25-.976 1.984-.976.946 0 1.68.445 2.196 1.375.609-.961 1.578-1.375 2.586-1.375 2 0 2.882 1.632 2.882 3.28v4.688h-1.937v-4.445c0-.96-.274-1.75-1.258-1.75-1.031 0-1.633.867-1.633 1.906v4.29H77.37v-4.477c0-.946-.258-1.719-1.235-1.719-1.039 0-1.648.867-1.648 1.906v4.29h-1.922zM10 10H0V1.833C0 .821.82 0 1.833 0H10v10z"/>
        <path d="M20 10H10V0h8.167C19.179 0 20 .82 20 1.833V10z" opacity=".8"/>
        <path d="M18.167 20H10V10h10v8.167C20 19.179 19.18 20 18.167 20" opacity=".5"/>
        <path d="M10 20H1.833A1.833 1.833 0 0 1 0 18.167V10h10v10z" opacity=".8"/>
    </g>
</svg>
