<svg xmlns="http://www.w3.org/2000/svg" width="50" height="50" viewBox="0 0 50 50">
    <defs>
        <linearGradient id="a" x1="-21.555%" x2="120.44%" y1="-19.546%" y2="113.605%">
            <stop offset="0%" stop-color="#27E1F4"/>
            <stop offset="100%" stop-color="#D51571"/>
        </linearGradient>
    </defs>
    <path fill="url(#a)" fill-rule="nonzero" d="M4 50V.16h16.996l-.05 2.15-6.872-.051-.002 5.875h7.976l-.002 9.023-2.15-.051.053-6.873h-7.975l.002-7.974H6.098l.051 13.798 7.923.053.051 8.97h-2.2l.05-6.872-5.875-.002v13.747l13.798.051-.002-7.973h18.05l-.002 9.023-2.15-.052.053-6.873H21.992l.056 14.847h-2.099l-.053-6.873H6.149L6.099 47.9h5.876l-.002-6.924h2.099l.002 6.924 6.871-.05.051 2.149H4zm23.56-17.244l2.086-.006-.044 14.696 5.786.035.022-7.921 8.966-.027-.007 2.085-6.828.073-.017 5.733 13.707.01.088-29.5-5.837.02-.044 14.695-2.084.006.05-16.78 7.87-.076.068-5.784-6.88.018.007-2.085 6.88-.018.017-5.839-13.708.091-.047 15.742-10.006.028.026-8.962 2.136.044-.071 6.827 5.837-.016-.01-13.707-6.829.073L28.7.126 53.457 0l-.147 49.512-25.852.077.103-16.833z" transform="translate(-4)"/>
</svg>
